#!OML:ASF H:\Terrain\Patient Classification 1\Animal2\Wednesday\Animal2.ASF
:FULLY-SPECIFIED
:DEGREES
741
root 19.826 16.1303 -24.9757 8.6786 -29.9995 -1.5834
lowerback 21.0728 -1.78451 1.3749
upperback -5.66684 -2.07048 -0.226019
thorax -18.7543 -1.07767 -0.292089
lowerneck 0.122889 7.10551 14.9193
upperneck -30.1143 5.14476 -23.7061
head -7.72821 2.91356 -11.4657
rclavicle -4.20927e-014 -1.39149e-014
rhumerus -19.0316 -56.8114 2.25166
rradius 27.7679
rwrist -0.96185
rhand -44.5157 15.7538
rfingers 7.12502
rthumb -17.3176 -13.4946
lclavicle -4.20927e-014 -1.39149e-014
lhumerus -17.1122 33.515 -0.834172
lradius 39.4577
lwrist 27.3872
lhand -33.9532 33.0771
lfingers 7.12502
lthumb -7.13439 62.9368
rfemur -30.0253 -3.97471 7.74889
rtibia 55.7976
rfoot -31.6996 -7.79859
rtoes -24.4526
lfemur -30.8191 2.11663 -1.56204
ltibia 51.9387
lfoot -28.2652 -5.18004
ltoes -27.6374
742
root 19.8574 16.1369 -25.0226 8.74186 -29.9623 -1.40611
lowerback 21.1681 -1.59672 1.38499
upperback -5.27974 -1.82757 -0.339634
thorax -18.3184 -0.980781 -0.525757
lowerneck -0.524771 7.02232 14.8868
upperneck -29.5187 5.05271 -23.6071
head -7.4349 2.84357 -11.3202
rclavicle 1.35174e-014 -2.54444e-014
rhumerus -19.0066 -56.7331 1.36245
rradius 28.0668
rwrist -1.47756
rhand -44.6873 15.5854
rfingers 7.12502
rthumb -17.4827 -13.6484
lclavicle 1.35174e-014 -2.54444e-014
lhumerus -15.7809 33.2593 1.33638
lradius 39.5337
lwrist 27.6885
lhand -34.511 33.049
lfingers 7.12502
lthumb -7.6728 62.8898
rfemur -30.4067 -4.08721 7.59482
rtibia 55.7921
rfoot -31.7347 -7.41027
rtoes -23.393
lfemur -31.2426 2.04131 -1.75286
ltibia 51.9909
lfoot -28.0473 -6.0333
ltoes -24.2547
743
root 19.8898 16.1368 -25.0694 8.73324 -29.9558 -1.1765
lowerback 21.4053 -1.28387 1.31759
upperback -4.95883 -1.43297 -0.428477
thorax -18.0495 -0.805916 -0.73573
lowerneck -0.790191 6.81023 14.9931
upperneck -29.0962 4.78299 -23.6699
head -7.29721 2.70355 -11.3162
rclavicle 1.49089e-014 -4.77083e-015
rhumerus -19.3094 -56.1539 1.01445
rradius 28.2501
rwrist -2.16698
rhand -44.9667 15.2426
rfingers 7.12502
rthumb -17.7516 -13.9672
lclavicle 1.49089e-014 -4.77083e-015
lhumerus -14.1556 32.9119 3.85385
lradius 39.4761
lwrist 27.5777
lhand -35.037 32.8585
lfingers 7.12502
lthumb -8.18051 62.6801
rfemur -30.7229 -4.15864 7.35452
rtibia 55.7579
rfoot -31.8701 -6.86463
rtoes -21.6673
lfemur -31.6365 1.95286 -1.99646
ltibia 52.0504
lfoot -27.9123 -5.87448
ltoes -24.6154
744
root 19.921 16.1317 -25.1158 8.91152 -29.9751 -1.38518
lowerback 21.7163 -1.11711 1.5641
upperback -4.67181 -1.11317 -0.323594
thorax -17.8751 -0.681297 -0.868385
lowerneck -0.77694 6.67696 15.0247
upperneck -28.8722 4.62136 -23.7537
head -7.25548 2.63534 -11.3391
rclavicle -3.82909e-014 1.98785e-015
rhumerus -18.7975 -55.7593 -0.0795268
rradius 28.351
rwrist -2.35303
rhand -45.191 14.8286
rfingers 7.12502
rthumb -17.9674 -14.3615
lclavicle -3.82909e-014 1.98785e-015
lhumerus -13.1042 32.5596 5.85622
lradius 39.2494
lwrist 27.0713
lhand -35.079 32.5127
lfingers 7.12502
lthumb -8.22105 62.3328
rfemur -31.0018 -4.19093 7.54212
rtibia 55.688
rfoot -31.7691 -6.88207
rtoes -21.5078
lfemur -31.9718 1.99483 -1.79743
ltibia 52.1298
lfoot -27.7997 -5.54855
ltoes -25.7011
745
root 19.9525 16.1345 -25.1569 9.06102 -29.9306 -1.48373
lowerback 21.9546 -1.07783 1.772
upperback -4.33882 -0.982865 -0.24467
thorax -17.6029 -0.635942 -0.942156
lowerneck -0.878052 6.62874 15.0742
upperneck -28.6861 4.56501 -23.8112
head -7.18213 2.60665 -11.3488
rclavicle -5.70015e-014 5.96354e-016
rhumerus -17.7682 -55.5487 -1.78378
rradius 28.4204
rwrist -2.34194
rhand -45.5781 14.604
rfingers 7.12502
rthumb -18.3399 -14.5515
lclavicle -5.70015e-014 5.96354e-016
lhumerus -12.4332 32.043 7.44841
lradius 39.1772
lwrist 27.0421
lhand -35.3319 32.4304
lfingers 7.12502
lthumb -8.46509 62.2407
rfemur -31.2708 -4.28255 7.62467
rtibia 55.5978
rfoot -31.5336 -7.15848
rtoes -22.4642
lfemur -32.3297 2.00981 -1.71695
ltibia 52.1904
lfoot -27.5721 -5.54598
ltoes -26.0104
746
root 19.9843 16.1365 -25.1994 9.11499 -29.8144 -1.31514
lowerback 22.1068 -1.28755 1.7828
upperback -3.83807 -1.24358 -0.144398
thorax -17.078 -0.737169 -0.738441
lowerneck -1.19507 6.84833 14.8036
upperneck -28.8254 4.78791 -23.8423
head -7.12659 2.72787 -11.297
rclavicle -9.19379e-016 -1.27222e-014
rhumerus -15.337 -56.2588 -4.85617
rradius 28.3346
rwrist -2.14783
rhand -45.89 15.0696
rfingers 7.12502
rthumb -18.6398 -14.0573
lclavicle -9.19379e-016 -1.27222e-014
lhumerus -12.5323 31.9321 8.42813
lradius 39.2126
lwrist 27.3257
lhand -35.7528 32.6022
lfingers 7.12502
lthumb -8.87129 62.3958
rfemur -31.5651 -4.39338 7.46765
rtibia 55.5314
rfoot -31.3956 -7.18587
rtoes -23.1176
lfemur -32.7985 1.92001 -1.89263
ltibia 52.2322
lfoot -27.2932 -5.03169
ltoes -27.9212
747
root 20.0154 16.1387 -25.2451 9.24456 -29.8349 -1.35921
lowerback 22.2377 -2.0439 1.90948
upperback -3.20003 -2.15516 0.263401
thorax -16.3854 -1.11717 -0.0149022
lowerneck -1.59428 7.57499 13.0499
upperneck -29.3086 5.70605 -23.1415
head -7.13911 3.26596 -10.6851
rclavicle 6.42571e-014 -7.15625e-015
rhumerus -8.98707 -57.2914 -11.6077
rradius 27.9023
rwrist -1.631
rhand -46.1857 16.0574
rfingers 7.12502
rthumb -18.9243 -13.042
lclavicle 6.42571e-014 -7.15625e-015
lhumerus -14.8169 32.5503 7.78732
lradius 39.3548
lwrist 27.5719
lhand -35.9849 32.547
lfingers 7.12502
lthumb -9.09519 62.3309
rfemur -31.8516 -4.35516 7.51357
rtibia 55.3918
rfoot -31.1804 -6.96645
rtoes -23.3757
lfemur -33.1238 1.93999 -1.87193
ltibia 52.1464
lfoot -26.8789 -4.74968
ltoes -28.679
748
root 20.0482 16.1451 -25.293 9.32453 -29.9084 -1.41203
lowerback 22.5343 -1.68827 2.18175
upperback -3.25902 -1.6336 0.0152735
thorax -16.6425 -0.930068 -0.638553
lowerneck 0.74378 6.93026 14.294
upperneck -29.596 5.08259 -23.5447
head -7.72609 2.99546 -11.2706
rclavicle 9.41245e-014 6.95746e-015
rhumerus -10.5413 -55.7269 -11.1338
rradius 28.0806
rwrist -2.12597
rhand -46.4859 16.2825
rfingers 7.12502
rthumb -19.213 -12.7885
lclavicle 9.41245e-014 6.95746e-015
lhumerus -12.9394 30.8711 10.0201
lradius 39.3985
lwrist 28.3736
lhand -36.4655 32.451
lfingers 7.12502
lthumb -9.55897 62.2142
rfemur -32.108 -4.33144 7.55094
rtibia 55.2573
rfoot -30.9831 -6.51729
rtoes -22.6887
lfemur -33.3326 2.01404 -1.85242
ltibia 52.0255
lfoot -26.4697 -4.45698
ltoes -29.5515
749
root 20.0795 16.1883 -25.3411 9.41383 -29.8194 -1.39199
lowerback 22.8496 -1.21034 2.28083
upperback -2.61786 -0.989373 -0.13835
thorax -16.028 -0.656896 -1.1111
lowerneck -1.32418 6.89819 15.4889
upperneck -28.6769 4.85402 -24.2899
head -6.98017 2.7334 -11.5808
rclavicle -4.50744e-014 7.95139e-016
rhumerus -11.7943 -56.3817 -10.6693
rradius 28.2265
rwrist -1.85865
rhand -46.5193 15.9347
rfingers 7.12502
rthumb -19.2451 -13.1331
lclavicle -4.50744e-014 7.95139e-016
lhumerus -10.1824 30.8827 13.0606
lradius 39.2623
lwrist 28.9188
lhand -37.1052 32.3555
lfingers 7.12502
lthumb -10.1762 62.0894
rfemur -32.2442 -4.48474 7.58592
rtibia 54.9886
rfoot -30.8512 -6.10458
rtoes -21.6296
lfemur -33.52 1.97692 -1.9226
ltibia 51.7694
lfoot -26.2559 -4.32814
ltoes -30.3588
